# xmcd
#
# Track frame offsets:
#	150
#	22036
#	44090
#	62730
#	86253
#	101410
#	113676
#	127781
#	138828
#	156549
#	166614
#	189580
#	194226
#	200174
#	216300
#	237504
#	251289
#	268494
#	287350
#	295346
#	302290
#	316507
#	338285
#
# Disc length: 4788 seconds
#
# Revision: 0
# Processed by: cddbd v1.5.1PL2 Copyright (c) Steve Scherf et al.
# Submitted via: EasyCDDAExtractor 9.0.0.1
#
DISCID=4b12b217
DTITLE=Jay-Z - Best Of Jayhova
DYEAR=2001
DGENRE=Hip-Hop
TTITLE0=It's Murda (Remix) (Featring Dmx, Eminem and Ja Rule)
TTITLE1=Murda Marcyville (Remix) (Featuring Memphis Bleek and Beanie Sigel)
TTITLE2=Guess Who's Back (Featuring Scarface and Beanie Sigel)
TTITLE3=Welcome To New York City (Featuriing Cam'ron)
TTITLE4=Super Ugly (Dissin Nas)
TTITLE5=People Talkin'
TTITLE6=You Don't Know
TTITLE7=Show You How To Do This
TTITLE8=Addicted To The Game (Remix) (Featuring LL Cool J and Ja Rule)
TTITLE9=Early This Morning
TTITLE10=Come and Get Me
TTITLE11=Average MC
TTITLE12=Hey Papi (Verse)
TTITLE13=Murdergram (Featuring Ja Rule and Dmx)
TTITLE14=Gangsta Shit (Featuring Ja Rule)
TTITLE15=Always On Time (Remix) (Featuring Ashanti and Ja Rule)
TTITLE16=It's Obvious (Featuring Rell)
TTITLE17=Alone In This World (Remix) (Featuring Faith)
TTITLE18=Got My Mind Right (Remix) (Verse)
TTITLE19=People's Court
TTITLE20=In My Lifetime (Remix)
TTITLE21=Anything
TTITLE22=Dead Presidents II
EXTD=
EXTT0=
EXTT1=
EXTT2=
EXTT3=
EXTT4=
EXTT5=
EXTT6=
EXTT7=
EXTT8=
EXTT9=
EXTT10=
EXTT11=
EXTT12=
EXTT13=
EXTT14=
EXTT15=
EXTT16=
EXTT17=
EXTT18=
EXTT19=
EXTT20=
EXTT21=
EXTT22=
PLAYORDER=
